<?xml version="1.0" encoding="iso-8859-1"?>
<!-- Generator: Adobe Illustrator 19.0.0, SVG Export Plug-In . SVG Version: 6.00 Build 0)  -->
<svg version="1.1" id="Capa_1" xmlns="http://www.w3.org/2000/svg" xmlns:xlink="http://www.w3.org/1999/xlink" x="0px" y="0px"
	 viewBox="0 0 512.042 512.042" style="enable-background:new 0 0 512.042 512.042;" xml:space="preserve">
<path style="fill:#2196F3;" d="M472.426,64.468l-213.333-64c-1.993-0.624-4.13-0.624-6.123,0l-213.333,64
	c-4.518,1.349-7.615,5.504-7.616,10.219v234.667c0,94.315,143.829,178.219,220.843,202.197c2.083,0.655,4.317,0.655,6.4,0
	c76.928-23.979,220.757-107.883,220.757-202.197V74.687C480.023,69.978,476.936,65.825,472.426,64.468z"/>
<circle style="fill:#1976D2;" cx="256.021" cy="245.354" r="117.333"/>
<path style="fill:#FAFAFA;" d="M234.688,298.687c-2.831,0.005-5.548-1.115-7.552-3.115l-42.667-42.667
	c-4.092-4.237-3.975-10.99,0.262-15.083c4.134-3.992,10.687-3.992,14.82,0l35.136,35.115l77.781-77.781
	c4.092-4.237,10.845-4.355,15.083-0.262c4.237,4.092,4.355,10.845,0.262,15.083c-0.086,0.089-0.173,0.176-0.262,0.262
	l-85.333,85.333C240.219,297.566,237.511,298.686,234.688,298.687z"/>
<g>
</g>
<g>
</g>
<g>
</g>
<g>
</g>
<g>
</g>
<g>
</g>
<g>
</g>
<g>
</g>
<g>
</g>
<g>
</g>
<g>
</g>
<g>
</g>
<g>
</g>
<g>
</g>
<g>
</g>
</svg>
